<svg width="130" height="39" viewBox="0 0 130 39" fill="none" xmlns="http://www.w3.org/2000/svg">
<path d="M8.64063 20.6563V38H0.320313V8H8.25V13.293H8.60156C9.26563 11.5482 10.3789 10.168 11.9414 9.15234C13.5039 8.1237 15.3984 7.60938 17.625 7.60938C19.7083 7.60938 21.5247 8.0651 23.0742 8.97656C24.6237 9.88802 25.8281 11.1901 26.6875 12.8828C27.5469 14.5625 27.9766 16.5677 27.9766 18.8984V38H19.6563V20.3828C19.6693 18.5469 19.2005 17.1146 18.25 16.0859C17.2995 15.0443 15.9909 14.5234 14.3242 14.5234C13.2044 14.5234 12.2148 14.7643 11.3555 15.2461C10.5091 15.7279 9.84505 16.431 9.36328 17.3555C8.89453 18.2669 8.65365 19.3672 8.64063 20.6563ZM43.6889 38.5859C40.655 38.5859 38.0313 37.9414 35.8178 36.6523C33.6173 35.3503 31.918 33.5404 30.7201 31.2227C29.5222 28.8919 28.9232 26.1901 28.9232 23.1172C28.9232 20.0182 29.5222 17.3099 30.7201 14.9922C31.918 12.6615 33.6173 10.8516 35.8178 9.5625C38.0313 8.26042 40.655 7.60938 43.6889 7.60938C46.7227 7.60938 49.3399 8.26042 51.5404 9.5625C53.754 10.8516 55.4597 12.6615 56.6576 14.9922C57.8555 17.3099 58.4545 20.0182 58.4545 23.1172C58.4545 26.1901 57.8555 28.8919 56.6576 31.2227C55.4597 33.5404 53.754 35.3503 51.5404 36.6523C49.3399 37.9414 46.7227 38.5859 43.6889 38.5859ZM43.7279 32.1406C45.1081 32.1406 46.2605 31.75 47.185 30.9688C48.1094 30.1745 48.8061 29.0937 49.2748 27.7266C49.7566 26.3594 49.9975 24.8034 49.9975 23.0586C49.9975 21.3138 49.7566 19.7578 49.2748 18.3906C48.8061 17.0234 48.1094 15.9427 47.185 15.1484C46.2605 14.3542 45.1081 13.957 43.7279 13.957C42.3347 13.957 41.1628 14.3542 40.2123 15.1484C39.2748 15.9427 38.5652 17.0234 38.0834 18.3906C37.6146 19.7578 37.3803 21.3138 37.3803 23.0586C37.3803 24.8034 37.6146 26.3594 38.0834 27.7266C38.5652 29.0937 39.2748 30.1745 40.2123 30.9688C41.1628 31.75 42.3347 32.1406 43.7279 32.1406ZM75.4217 8V14.25H57.3553V8H75.4217ZM61.4568 0.812499H69.7771V28.7812C69.7771 29.5495 69.8943 30.1484 70.1287 30.5781C70.3631 30.9948 70.6886 31.2878 71.1053 31.457C71.535 31.6263 72.0298 31.7109 72.5896 31.7109C72.9803 31.7109 73.3709 31.6784 73.7615 31.6133C74.1521 31.5352 74.4516 31.4766 74.66 31.4375L75.9686 37.6289C75.5519 37.7591 74.966 37.9089 74.2107 38.0781C73.4555 38.2604 72.5376 38.3711 71.4568 38.4102C69.4516 38.4883 67.6938 38.2214 66.1834 37.6094C64.686 36.9974 63.5206 36.0469 62.6873 34.7578C61.854 33.4687 61.4438 31.8411 61.4568 29.875V0.812499ZM89.7912 38.5859C86.7053 38.5859 84.049 37.9609 81.8225 36.7109C79.6089 35.4479 77.9032 33.6641 76.7053 31.3594C75.5074 29.0417 74.9084 26.3008 74.9084 23.1367C74.9084 20.0508 75.5074 17.3424 76.7053 15.0117C77.9032 12.681 79.5894 10.8646 81.7639 9.5625C83.9514 8.26042 86.5165 7.60938 89.4592 7.60938C91.4384 7.60938 93.2808 7.92839 94.9865 8.56641C96.7053 9.19141 98.2027 10.1354 99.4787 11.3984C100.768 12.6615 101.77 14.25 102.487 16.1641C103.203 18.0651 103.561 20.2917 103.561 22.8437V25.1289H78.2287V19.9727H95.7287C95.7287 18.7747 95.4683 17.7135 94.9475 16.7891C94.4266 15.8646 93.704 15.1419 92.7795 14.6211C91.868 14.0872 90.8068 13.8203 89.5959 13.8203C88.3329 13.8203 87.2131 14.1133 86.2365 14.6992C85.273 15.2721 84.5178 16.0469 83.9709 17.0234C83.424 17.987 83.1441 19.0612 83.1311 20.2461V25.1484C83.1311 26.6328 83.4045 27.9154 83.9514 28.9961C84.5113 30.0768 85.299 30.9102 86.3147 31.4961C87.3303 32.082 88.5347 32.375 89.9279 32.375C90.8524 32.375 91.6988 32.2448 92.467 31.9844C93.2352 31.724 93.8928 31.3333 94.4397 30.8125C94.9865 30.2917 95.4032 29.6536 95.6897 28.8984L103.385 29.4062C102.994 31.2552 102.194 32.8698 100.983 34.25C99.7847 35.6172 98.2352 36.6849 96.3342 37.4531C94.4462 38.2083 92.2652 38.5859 89.7912 38.5859ZM104.434 38V33.0391L119.122 14.8555V14.6406H104.942V8H129.141V13.4102L115.352 31.1445V31.3594H129.649V38H104.434Z" fill="black"/>
</svg>
